# Blender 3.3.1
# www.blender.org
mtllib rotator_arrows.mtl
o Cube
v -0.160488 -0.038952 0.424937
v -0.160488 0.038952 0.424937
v -0.160488 -0.038952 0.314670
v -0.160488 0.038952 0.314670
v 0.160488 0.000000 0.424937
v 0.160488 0.000000 0.314670
v 0.067442 -0.038952 0.314670
v 0.067442 0.038952 0.314670
v 0.067442 -0.038952 0.424937
v 0.067442 0.038952 0.424937
v 0.067442 -0.118749 0.314670
v 0.067442 0.118749 0.314670
v 0.067442 -0.118749 0.424937
v 0.067442 0.118749 0.424937
v 0.160488 -0.038952 -0.424937
v 0.160488 0.038952 -0.424937
v 0.160488 -0.038952 -0.314670
v 0.160488 0.038952 -0.314670
v -0.160488 0.000000 -0.424937
v -0.160488 0.000000 -0.314670
v -0.067442 -0.038952 -0.314670
v -0.067442 0.038952 -0.314670
v -0.067442 -0.038952 -0.424937
v -0.067442 0.038952 -0.424937
v -0.067442 -0.118749 -0.314670
v -0.067442 0.118749 -0.314670
v -0.067442 -0.118749 -0.424937
v -0.067442 0.118749 -0.424937
v 0.424937 -0.038952 0.160488
v 0.424937 0.038952 0.160488
v 0.314670 -0.038952 0.160488
v 0.314670 0.038952 0.160488
v 0.424937 0.000000 -0.160488
v 0.314670 0.000000 -0.160488
v 0.314670 -0.038952 -0.067442
v 0.314670 0.038952 -0.067442
v 0.424937 -0.038952 -0.067442
v 0.424937 0.038952 -0.067442
v 0.314670 -0.118749 -0.067442
v 0.314670 0.118749 -0.067442
v 0.424937 -0.118749 -0.067442
v 0.424937 0.118749 -0.067442
v -0.424937 -0.038952 -0.160488
v -0.424937 0.038952 -0.160488
v -0.314670 -0.038952 -0.160488
v -0.314670 0.038952 -0.160488
v -0.424937 0.000000 0.160488
v -0.314670 0.000000 0.160488
v -0.314670 -0.038952 0.067442
v -0.314670 0.038952 0.067442
v -0.424937 -0.038952 0.067442
v -0.424937 0.038952 0.067442
v -0.314670 -0.118749 0.067442
v -0.314670 0.118749 0.067442
v -0.424937 -0.118749 0.067442
v -0.424937 0.118749 0.067442
vn -1.0000 -0.0000 -0.0000
vn 0.7871 -0.6168 -0.0000
vn -0.0000 -0.0000 1.0000
vn -0.0000 1.0000 -0.0000
vn -0.0000 -1.0000 -0.0000
vn 0.7871 0.6168 -0.0000
vn -0.0000 -0.0000 -1.0000
vn 1.0000 -0.0000 -0.0000
vn -0.7871 -0.6168 -0.0000
vn -0.7871 0.6168 -0.0000
vn -0.0000 -0.6168 -0.7871
vn -0.0000 0.6168 -0.7871
vn -0.0000 -0.6168 0.7871
vn -0.0000 0.6168 0.7871
vt 0.978155 0.418260
vt 0.276027 0.568639
vt 0.222934 0.587044
vt 0.840156 0.418260
vt 0.406274 0.523040
vt 0.009203 0.990797
vt 0.978155 0.222934
vt 0.418260 0.587044
vt 0.691504 0.009203
vt 0.840156 0.222934
vt 0.204529 0.990797
vt 0.821751 0.054802
vt 0.601485 0.782370
vt 0.619891 0.782370
vt 0.153277 0.009203
vt 0.601485 0.587044
vt 0.619891 0.587044
vt 0.568754 0.568639
vt 0.840156 0.009203
vt 0.418260 0.990797
vt 0.558092 0.390277
vt 0.944468 0.587044
vt 0.204529 0.587044
vt 0.688339 0.435876
vt 0.840156 0.204529
vt 0.222934 0.990797
vt 0.142615 0.187565
vt 0.944468 0.782370
vt 0.009203 0.587044
vt 0.272862 0.141966
vt 0.436665 0.587044
vt 0.981508 0.009203
vt 0.424679 0.343570
vt 0.803116 0.587044
vt 0.784711 0.587044
vt 0.821751 0.482583
vt 0.436665 0.782370
vt 0.981508 0.204529
vt 0.009203 0.234271
vt 0.803116 0.782370
vt 0.784711 0.782370
vt 0.406274 0.095259
vt 0.978155 0.418260
vt 0.276027 0.568639
vt 0.222934 0.587044
vt 0.840156 0.418260
vt 0.406274 0.523040
vt 0.009203 0.990797
vt 0.978155 0.222934
vt 0.418260 0.587044
vt 0.691504 0.009203
vt 0.840156 0.222934
vt 0.204529 0.990797
vt 0.821751 0.054802
vt 0.601485 0.782370
vt 0.619891 0.782370
vt 0.153277 0.009203
vt 0.601485 0.587044
vt 0.619891 0.587044
vt 0.568754 0.568639
vt 0.840156 0.009203
vt 0.418260 0.990797
vt 0.558092 0.390277
vt 0.944468 0.587044
vt 0.204529 0.587044
vt 0.688339 0.435876
vt 0.840156 0.204529
vt 0.222934 0.990797
vt 0.142615 0.187565
vt 0.944468 0.782370
vt 0.009203 0.587044
vt 0.272862 0.141966
vt 0.436665 0.587044
vt 0.981508 0.009203
vt 0.424679 0.343570
vt 0.803116 0.587044
vt 0.784711 0.587044
vt 0.821751 0.482583
vt 0.436665 0.782370
vt 0.981508 0.204529
vt 0.009203 0.234271
vt 0.803116 0.782370
vt 0.784711 0.782370
vt 0.406274 0.095259
vt 0.978155 0.418260
vt 0.276027 0.568639
vt 0.222934 0.587044
vt 0.840156 0.418260
vt 0.406274 0.523040
vt 0.009203 0.990797
vt 0.978155 0.222934
vt 0.418260 0.587044
vt 0.691504 0.009203
vt 0.840156 0.222934
vt 0.204529 0.990797
vt 0.821751 0.054802
vt 0.601485 0.782370
vt 0.619891 0.782370
vt 0.153277 0.009203
vt 0.601485 0.587044
vt 0.619891 0.587044
vt 0.568754 0.568639
vt 0.840156 0.009203
vt 0.418260 0.990797
vt 0.558092 0.390277
vt 0.944468 0.587044
vt 0.204529 0.587044
vt 0.688339 0.435876
vt 0.840156 0.204529
vt 0.222934 0.990797
vt 0.142615 0.187565
vt 0.944468 0.782370
vt 0.009203 0.587044
vt 0.272862 0.141966
vt 0.436665 0.587044
vt 0.981508 0.009203
vt 0.424679 0.343570
vt 0.803116 0.587044
vt 0.784711 0.587044
vt 0.821751 0.482583
vt 0.436665 0.782370
vt 0.981508 0.204529
vt 0.009203 0.234271
vt 0.803116 0.782370
vt 0.784711 0.782370
vt 0.406274 0.095259
vt 0.978155 0.418260
vt 0.276027 0.568639
vt 0.222934 0.587044
vt 0.840156 0.418260
vt 0.406274 0.523040
vt 0.009203 0.990797
vt 0.978155 0.222934
vt 0.418260 0.587044
vt 0.691504 0.009203
vt 0.840156 0.222934
vt 0.204529 0.990797
vt 0.821751 0.054802
vt 0.601485 0.782370
vt 0.619891 0.782370
vt 0.153277 0.009203
vt 0.601485 0.587044
vt 0.619891 0.587044
vt 0.568754 0.568639
vt 0.840156 0.009203
vt 0.418260 0.990797
vt 0.558092 0.390277
vt 0.944468 0.587044
vt 0.204529 0.587044
vt 0.688339 0.435876
vt 0.840156 0.204529
vt 0.222934 0.990797
vt 0.142615 0.187565
vt 0.944468 0.782370
vt 0.009203 0.587044
vt 0.272862 0.141966
vt 0.436665 0.587044
vt 0.981508 0.009203
vt 0.424679 0.343570
vt 0.803116 0.587044
vt 0.784711 0.587044
vt 0.821751 0.482583
vt 0.436665 0.782370
vt 0.981508 0.204529
vt 0.009203 0.234271
vt 0.803116 0.782370
vt 0.784711 0.782370
vt 0.406274 0.095259
s 0
f 1/1/1 2/4/1 4/10/1 3/7/1
f 6/16/2 5/13/2 13/37/2 11/31/2
f 9/27/3 10/30/3 2/5/3 1/2/3
f 10/28/1 14/40/1 12/34/1 8/22/1
f 8/23/4 4/11/4 2/6/4 10/29/4
f 9/25/1 7/19/1 11/32/1 13/38/1
f 3/8/5 7/20/5 9/26/5 1/3/5
f 14/41/6 5/14/6 6/17/6 12/35/6
f 3/9/7 4/12/7 8/24/7 7/21/7
f 5/15/3 14/42/3 10/30/3 9/27/3 13/39/3
f 6/18/7 11/33/7 7/21/7 8/24/7 12/36/7
f 15/43/8 16/46/8 18/52/8 17/49/8
f 20/58/9 19/55/9 27/79/9 25/73/9
f 23/69/7 24/72/7 16/47/7 15/44/7
f 24/70/8 28/82/8 26/76/8 22/64/8
f 22/65/4 18/53/4 16/48/4 24/71/4
f 23/67/8 21/61/8 25/74/8 27/80/8
f 17/50/5 21/62/5 23/68/5 15/45/5
f 28/83/10 19/56/10 20/59/10 26/77/10
f 17/51/3 18/54/3 22/66/3 21/63/3
f 19/57/7 28/84/7 24/72/7 23/69/7 27/81/7
f 20/60/3 25/75/3 21/63/3 22/66/3 26/78/3
f 29/85/3 30/88/3 32/94/3 31/91/3
f 34/100/11 33/97/11 41/121/11 39/115/11
f 37/111/8 38/114/8 30/89/8 29/86/8
f 38/112/3 42/124/3 40/118/3 36/106/3
f 36/107/4 32/95/4 30/90/4 38/113/4
f 37/109/3 35/103/3 39/116/3 41/122/3
f 31/92/5 35/104/5 37/110/5 29/87/5
f 42/125/12 33/98/12 34/101/12 40/119/12
f 31/93/1 32/96/1 36/108/1 35/105/1
f 33/99/8 42/126/8 38/114/8 37/111/8 41/123/8
f 34/102/1 39/117/1 35/105/1 36/108/1 40/120/1
f 43/127/7 44/130/7 46/136/7 45/133/7
f 48/142/13 47/139/13 55/163/13 53/157/13
f 51/153/1 52/156/1 44/131/1 43/128/1
f 52/154/7 56/166/7 54/160/7 50/148/7
f 50/149/4 46/137/4 44/132/4 52/155/4
f 51/151/7 49/145/7 53/158/7 55/164/7
f 45/134/5 49/146/5 51/152/5 43/129/5
f 56/167/14 47/140/14 48/143/14 54/161/14
f 45/135/8 46/138/8 50/150/8 49/147/8
f 47/141/1 56/168/1 52/156/1 51/153/1 55/165/1
f 48/144/8 53/159/8 49/147/8 50/150/8 54/162/8
